/* XPM */
static char *e1e8ac9bc8c0444ed2731b994d0e6300VItNn1oSy1HhE97Y[] = {
/* columns rows colors chars-per-pixel */
"54 99 171 2 ",
"   c None",
".  c #0F0A0C",
"X  c #130C0D",
"o  c #190F0D",
"O  c #1D110F",
"+  c #161414",
"@  c #1C1414",
"#  c #1E1816",
"$  c #1E1B1B",
"%  c #24140F",
"&  c #241512",
"*  c #291612",
"=  c #251915",
"-  c #2C1A14",
";  c #231C1B",
":  c #2B1D1A",
">  c #341C15",
",  c #3A1E16",
"<  c #321F1A",
"1  c #3C1F18",
"2  c #25201F",
"3  c #2C211D",
"4  c #372017",
"5  c #3C2116",
"6  c #34221B",
"7  c #3D231A",
"8  c #37281D",
"9  c #3C291E",
"0  c #261F21",
"q  c #252222",
"w  c #2A2423",
"e  c #2B2927",
"r  c #2B2728",
"t  c #2D2B2B",
"y  c #342622",
"u  c #372824",
"i  c #3D2B21",
"p  c #312B2B",
"a  c #39302E",
"s  c #342F32",
"d  c #353333",
"f  c #3A3535",
"g  c #383738",
"h  c #3E3C3D",
"j  c #422317",
"k  c #492617",
"l  c #442319",
"z  c #492519",
"x  c #41291D",
"c  c #4D2A1A",
"v  c #542B1A",
"b  c #592E1B",
"n  c #57301C",
"m  c #5C311C",
"M  c #64341D",
"N  c #6A371E",
"B  c #67381E",
"V  c #6C391E",
"C  c #743C1F",
"Z  c #7A3E1F",
"A  c #422D22",
"S  c #4A3727",
"D  c #4C392B",
"F  c #433124",
"G  c #543D2B",
"H  c #413E3E",
"J  c #513C32",
"K  c #663721",
"L  c #6C3720",
"P  c #6D3920",
"I  c #743C21",
"U  c #7B3E21",
"Y  c #633F33",
"T  c #7A401F",
"R  c #5B412D",
"E  c #44413F",
"W  c #574130",
"Q  c #5C4230",
"!  c #774022",
"~  c #794021",
"^  c #614531",
"/  c #654A34",
"(  c #6A4D34",
")  c #7A4A35",
"_  c #6E5033",
"`  c #6F503D",
"'  c #705032",
"]  c #72543A",
"[  c #7E5B3D",
"{  c #464445",
"}  c #4D4B4C",
"|  c #484546",
" . c #504E4F",
".. c #514F50",
"X. c #545253",
"o. c #595757",
"O. c #595857",
"+. c #5D5C5D",
"@. c #6E554B",
"#. c #7F5D49",
"$. c #6C5950",
"%. c #735C56",
"&. c #756059",
"*. c #7E6457",
"=. c #615F60",
"-. c #656464",
";. c #686667",
":. c #6D6C6D",
">. c #747373",
",. c #787977",
"<. c #797778",
"1. c #7B7A7A",
"2. c #844D2B",
"3. c #955F3A",
"4. c #87603A",
"5. c #896747",
"6. c #8A6744",
"7. c #936B44",
"8. c #9E6840",
"9. c #966E4A",
"0. c #9A6F48",
"q. c #9E744A",
"w. c #97724E",
"e. c #9A6952",
"r. c #9E715F",
"t. c #9D7650",
"y. c #A3774C",
"u. c #A9734A",
"i. c #AD7D4E",
"p. c #A67A4E",
"a. c #A67D55",
"s. c #B27F52",
"d. c #8C726B",
"f. c #97776C",
"g. c #817E7E",
"h. c #977A72",
"j. c #7E807E",
"k. c #B4824F",
"l. c #AC8257",
"z. c #B28151",
"x. c #B48250",
"c. c #B48152",
"v. c #B58254",
"b. c #B98656",
"n. c #BB8957",
"m. c #B2865A",
"M. c #BD8D5D",
"N. c #B9885A",
"B. c #9E8177",
"V. c #B88860",
"C. c #A4857D",
"Z. c #C18E5D",
"A. c #C3915E",
"S. c #C69461",
"D. c #848484",
"F. c #8B8B8B",
"G. c #918F90",
"H. c #939293",
"J. c #9D9C9C",
"K. c #999596",
"L. c #AD8B81",
"P. c #B08D81",
"I. c #A4A4A4",
"U. c gray67",
"Y. c #B4B4B4",
"T. c #C79E8D",
"R. c #C39E93",
"E. c #C6A395",
"W. c #C9A395",
"Q. c #C9A398",
"!. c #C9A398",
/* pixels */
"                            q $ @ ; e                                                                       ",
"                        + o - > > * o +                                                                     ",
"                    w & 1 z k l l l l > X |                                                                 ",
"                    = l z , 6 ^ / 8 > z < X ;.                                      ; + q                   ",
"                  # l z , G i.x.x.c.( - z & + G.        d                     p = , k v b c 6               ",
"                  = z l 9 y.x.x.x.x.c.W 5 l - - - > > > > > > - : # $       6 j z z z z l c m i             ",
"                  > z 7 R x.x.x.c.9.G - j z z z z z z z z z z v b b c 5 6 + * l z 1 7 R ` @.9 M H           ",
"                r > z 1 / k.k.i.( < 1 l z z z z z z z z z b N C U U U U I m - o = Q q.V.T.W.f.n A I.        ",
"                  - z j G c.9.A > z z z z z z z z z k b C U U U U U U U U U U m 6 6.V.E.W.!.P.v c D.        ",
"                  = z l 4 ( 6 j z z z z z z z z z c M U U U U U U U U U U U U U P 7 *.E.!.!.f.v x D.        ",
"                  $ l z l - l z z z z z z z z z c C ~ U U U U U U U U U U U U U U I x d.!.R.Y b 3 J.        ",
"                  } - l - j z z z z z z z z z c V U U U U U U U U U U U U U U U U U I i C.#.z c h           ",
"                    H O > z z z z z z z z z z b U U U U U U U U U U U U U U U U U U U M 4 z l = ,.          ",
"                    ; , z z z z z z z z z z z P U U U U U U U U U U U U U U U U U U U T c 7 = X.            ",
"                  t > z z z z z z z z z z z c U U U U U U U U U U U U U U U U U U U U U V & } I.            ",
"                  & z z z z z z z z z z l 7 k V U U U U U U U U U U U U U U U U U U U U U j >.              ",
"                w > z z z z z z z z z l o . . X z U U U U U U U U U U U U U U U U U U U U M H               ",
"                ; l z z z z z z z z z * . . . . X I U U U U U U U U U U U U U N b M U U U U ; U.            ",
"                = l z z z z z z z z z o . . . . . M U U U U U U U U U U U U v X . X 5 I U U 7 D.            ",
"                - z z z z z z z z z z & . . . . X P ~ U U U U U U U U U U I O . . . X b U U n X.            ",
"              t > z z z z z z z z z z , X . . X 5 U U U U U U U U U U U U M X . . . . z U U K d             ",
"              ; l z z z z z z z z z z z l , k V U U U U U U U U U U U U U P @ . . . X n U U V w Y.          ",
"              @ z z z z z z z z z z z z z z b Z U U U U U U U U U U U U U U b o . . 4 U U U I ; U.          ",
"              = z z z z z z z z z z z z z z k n v u.i.x.v.b.v.s.u.3.2.~ U U U I M M U U U U I ; I.          ",
"              - z z z z z z z z z z z z z 7 = ] t.S.S.S.S.w.D i G m.S.N.8.n I U U U U U U U I ; I.          ",
"            = l z z z z z z z z z z z z z = a.S.S.S.S.S.l.X . . . i M.S.A.#.8 V U U U U U U C = J.          ",
"          t - l z z z z z z z z z z z z l i M.S.S.S.S.S.9.. . . . X l.S.S.S.5.5 U U U U U U U & H.          ",
"          & l z z z z z z z z z z z z z j A n.S.S.S.S.S.M.3 . . . D M.S.S.S.N.A I U U U U U U < <.          ",
"        ; 1 z z z z z z z z z z z z z z z : p.Z.S.S.A.M.b.y.] R ( m.S.S.S.S.N.i I U U U U U U c o.          ",
"      e - z z z z z z z z z z z z z z z z > F 0.v.c.0.[ ( R G ^ [ i.n.Z.A.A.5.4 U U U U U U ~ B d           ",
"      = l , * j z z z z z z z z z z z z z z , - 6 x = %.d.B.C.h.%.J ( q.y.[ 9 N U U U U U U U U 6 J.        ",
"    + - & X > z z z z z z z z z z z z z z z z 1 4 U 5 R.W.W.W.W.W.r.c & 8 j L U U U U U U U U U b O.        ",
"  | t h } & z z z z z z z z z z z z z z z z z l > ~ l R.W.!.!.!.!.e.I > U U U U U U I ~ U U N N C - g.      ",
"    J.  o.> l , l z z z z z z z z z z z z z z l * Z c L.W.!.!.!.R.) M j U U U U U U c b U U 7 = > > $       ",
"        q - O . j l - l z 1 j z l z z z z z z z O I P %.W.!.!.!.$.M j m U U I b U U n O I U = ,.D.+.;.I.    ",
"        $ @ @ X l & X j > O & j * z z z z z z z - n U c &.E.W.h.A I * I U U V > I I - * c M q I.            ",
"        } p X X O > * * & j & O > z z z z z z z j % I U n 7 A l C c j U U U I > M > > l * < : ;.            ",
"        ,.= 5 5 l z 5 O l z 5 , z z z z z z c b k - , U U U ~ U L - P U U U U c O > z z , m C 4 X.          ",
"        # j z z z z z z z z z z z z z z v V U U I c > & l m n 5 - V ~ U U U U I c z z z I U U U j =.        ",
"      q , z z z z z z z z z z z z z z b Z U U U U I b l > * > b I U U U U U U U c z z z V U U U Z < >.      ",
"      = z z z z z z z z z z z z z z v U U U U U U U Z C C I U U U U U U U U U M - z z z b U U U U I 6 F.    ",
"    ; l z z z z z z z z z z z z z z V U U U U U U U U U U U U U U U U U U U U m * z z z z b U U U U B p     ",
"    * z z z z z z z > , z z z z z b U U U U U U U U U U U U U U U U U U U U ~ m o 1 z z z z v N U U ~ l >.  ",
"  q 7 z z z z z z z & l z z z z z N U U U U U U U U U U U U U U U U U U U U U m w w - l z z l , I U U I e   ",
"  # z z z z z z z l * z z z z z c U U U U U U U U U U U U U U U U U U U U U U v | U.-.w * - * m U U U U - F.",
"  * l z z z z z z 5 - z z z z z v U U U U U U U U U U U U U U U U U U U U U U c ..    J.s * V U U U U U < ,.",
"t > z z z z z z z 7 * z z z z l l m M I U U U U U U U U U U U U U U U U U U ~ j +.    e j C U U U U U I # D.",
"; 7 z z z z z z z z & > < - - - 4 k j , j P U U U U U U U U U U U U U U U U U < :.  r l U U U U U U U l h U.",
"; l z z z z z z z z 7 - 5 v M I U U U U b > I U U U U U U U U U U U U U U U C : D.  8 I U U U U U U m = D.  ",
"; l z z z z z z z z z z c v v v v v v m C l n U U U U U U U U U U U U U U U M w H.; m U U U U U U m = -.    ",
"$ l z z z z z z z z z z z z z z z z z z M m k U U U U U U U U U U U U U U U c H   = v I U U I N j = +.Y.    ",
"r , z z z z z z z z z z z z z z z z z z v j m U U U U U U U U U U U U U U ~ 4 ;.  ; 1 v b b j = e :.        ",
"  - z z z z z z z z z z z z z z z z z z 5 > Z U U U U U U U U U U U U U U V w F.    : > > * ; } F.          ",
"  = l z z z z z z z z z z z z z z z z 1 * I U U U U U U U U U U U U U U U l |       F.| h +.F.              ",
"  } > z z z z z z z z z z z z z z z > - P U U U U U U U U U U U U U U ~ ! = >.                              ",
"    f > z z z z z z z z z z z z l * 4 U U U U U U U U U U U U U U U U U c g J.                              ",
"      g % l z z z z z z z z l * & l I U U U U U U U U U U U U U U U U I = >.                                ",
"        } X * - > > > > = & & , z c P U U U U U U U U U U U U U U U U l d I.                                ",
"        h > j 4 > > > , j l z z z z M U U U U U U U U U U U U U U U I ; 1.                                  ",
"        d > z z z z z z z z z z z z v U U U U U U U U U U U U U U U >  .                                    ",
"          > z z z z z z z z z z z z z M U U U U U U U U U U U U U b 0 F.                                    ",
"          > z z z z z z z z z z z z z z v M I U U U U U U U U U U : -.                                      ",
"          > z z z z z z z z z z z z z z z z c M Z U U U U U U U U 3 H.                                      ",
"          - z z z z z z z z z z z z z z z z z z M Z U U U U U U U - F.                                      ",
"          - z z z z z z z z z > % l z z z z z z z N ~ U U U U U U j :.                                      ",
"          = z z z z z z z z z z 1 % O & * > z z z z L U U U U U U b {                                       ",
"          ; l z z z z z z z z z z = } 1.:.t l z z z c U U U U U U V e                                       ",
"          @ > z z z z z z z z z > h J.      & z z z z b U U U U U I * H.                                    ",
"          = * z z z z z z z z 5 w D.        d , z z z z M U U U U U > ,.                                    ",
"        p 5 > l z z z z z z l : -.            = z z z z z I U U U U k ;.                                    ",
"        : l z z z z z z z l = } I.            +.> z z z z b U U U U m }                                     ",
"        = z z z z z z z z > g H.                f , z z z z N U U U I f                                     ",
"        > z z z z z z z > p F.                    t < z z z k M P L M w J.                                  ",
"      2 j z z z z z z 4 q >.                      J.H > z z z z z z z ; K.                                  ",
"      = l z z z z z j 2 >.                            ; l z z z z z z ; H.                                  ",
"      = z z z z z z = +.                              @ z z z z z z z ; H.                                  ",
"      = z z z z z l r H.                            t , z z z z z k l w J.                                  ",
"      : z z z z z > }                               # z z z z z z z * }                                     ",
"      < z z z z z * >.                            g - z z z z z z l @ D.                                    ",
"      < z z z z z & F.                            = l z z z z z k * g U.                                    ",
"      < k z z z l w J.                            * z z z z z z j $ D.                                      ",
"      < k l z z 5 d                             q l z z z z z z * }                                         ",
"      = l * l > , H                             @ z z z z z z l $ F.                                        ",
"      = < + * + & }                             * z z z z z z l # j.                                        ",
"        3 $ S : A +.                            * z z z z z v I K 4 t                                       ",
"        <.1.X...h F.                            & z z z z c C U U I v ;                                     ",
"                                                } > z z z m U U U U U L 5 p                                 ",
"                                                  | = j z M U U U U U U U b y                               ",
"                                                    :.w - c I U U U U U U U M y ;.                          ",
"                                                      K.} > v I U U I m I U N > u >.                        ",
"                                                          p j v U U I 5 , I I 5 7 a                         ",
"                                                            - z L U U U n > I B * & =.                      ",
"                                                            = l v U U U V - = A 6 6 E                       ",
"                                                            } - z v M 5 A / i 7.] D f                       ",
"                                                              d , l % 6.k.x.G ' _ 3 f                       ",
"                                                                d @ 8 4.y.i.R G 9 $ +.                      ",
"                                                                  ,.d i ( _ = ; d D.                        ",
"                                                                      >.d w ..J.Y.                          ",
"                                                                          U.                                "
};
